:SAMPLES-PER-SECOND 30
:FRAME-RANGE 1-3358
:FULLY-SPECIFIED
:DEGREES
315
root  37.7906 35.9292 49.0968 170.887 -59.4154 -169.184
RightUpLeg  -21.7376 0.0375233 3.54014
RightLeg  46.6084 -7.36058 -8.59898
RightFoot  -25.2319 1.09942 10.4102
RightToes  -5.8209e-011 0 -3.6325e-017
Spine  13.61 -2.99799 -3.24923
Spine1  2.84646 -5.7072 10.6808
HEad  -6.25216 1.66746 6.1389
LeftShoulder1  1.85842 -8.55049 -7.88729
LeftArm  14.5153 -79.629 -88.7376
LeftForeArm  12.8787 8.1311 -13.7026
LeftHand  0.269504 1.55903 -8.55582
RightShoulder  11.1646 33.01 23.9392
RightArm  -40.8449 32.3061 7.42196
RightForeArm  -22.9734 -6.52831 7.09066
RightHand  0.963782 2.2933 14.312
LeftUpLeg  -34.9226 19.545 11.9188
LeftLeg  66.3585 0.909065 2.99647
LeftFoot  -5.75012 0.316319 -5.76934
LeftToes  -4.03819e-010 -8.71445e-011 8.52097e-011
316
root  36.6998 35.2683 50.058 170.505 -55.5767 -168.987
RightUpLeg  -22.7949 2.94992 1.89052
RightLeg  50.1783 -5.97147 -7.99396
RightFoot  -26.9085 1.41027 11.6239
RightToes  -5.8209e-011 0 -3.6325e-017
Spine  14.4518 -2.64302 -3.16036
Spine1  5.84376 -5.90481 11.0732
HEad  -10.7545 2.54658 5.58935
LeftShoulder1  1.80134 -8.47771 -7.45827
LeftArm  12.1962 -81.4635 -83.297
LeftForeArm  10.1959 8.19239 -14.3074
LeftHand  0.215137 2.09001 -8.13528
RightShoulder  11.9953 34.9775 24.4799
RightArm  -43.8901 33.2707 7.21312
RightForeArm  -26.7967 -6.20433 5.83364
RightHand  0.944309 2.24248 14.1197
LeftUpLeg  -38.6231 16.7951 15.0617
LeftLeg  61.9877 -0.0376093 0.52578
LeftFoot  -7.74642 0.25611 -6.67802
LeftToes  -4.03819e-010 -8.71445e-011 8.52097e-011
317
root  35.3802 34.9548 50.8704 171.305 -52.7925 -169.665
RightUpLeg  -22.7014 5.65879 -0.588802
RightLeg  51.1586 -5.36579 -7.48355
RightFoot  -27.9835 1.80838 13.6135
RightToes  -5.8209e-011 0 -3.6325e-017
Spine  15.8047 -2.28054 -5.14909
Spine1  6.40843 -6.46546 12.7647
HEad  -12.7264 2.70592 5.40175
LeftShoulder1  1.86989 -8.81467 -7.62081
LeftArm  11.0192 -81.7185 -83.3798
LeftForeArm  10.6844 8.10306 -13.5416
LeftHand  0.223186 2.05645 -8.32925
RightShoulder  12.4612 35.2352 25.5009
RightArm  -45.7545 34.1619 7.50383
RightForeArm  -28.8964 -5.25798 5.21374
RightHand  0.955197 2.34373 14.0877
LeftUpLeg  -40.277 13.4055 17.8389
LeftLeg  54.1955 -1.63103 -1.94986
LeftFoot  -8.67681 0.264708 -9.13647
LeftToes  -4.03819e-010 -8.71445e-011 8.52097e-011
318
root  33.8568 34.9739 51.609 172.716 -49.0737 -170.074
RightUpLeg  -22.1714 8.68036 -3.08844
RightLeg  49.1503 -4.59679 -6.02827
RightFoot  -27.9244 2.06697 15.4094
RightToes  -5.8209e-011 0 -3.6325e-017
Spine  16.464 -2.06229 -6.84114
Spine1  5.85297 -6.57343 12.9903
HEad  -13.06 2.86342 6.27146
LeftShoulder1  1.91933 -9.14609 -7.61256
LeftArm  13.3078 -81.2891 -86.7385
LeftForeArm  8.47457 8.07291 -13.3935
LeftHand  0.228894 2.27853 -9.20687
RightShoulder  12.952 34.7821 27.2328
RightArm  -47.7171 33.9993 7.68377
RightForeArm  -30.1834 -3.06698 4.70222
RightHand  1.06346 2.84697 14.6914
LeftUpLeg  -39.8732 10.061 21.0992
LeftLeg  44.4935 -2.79206 -2.53402
LeftFoot  -8.54037 0.261225 -8.58358
LeftToes  -4.03819e-010 -8.71445e-011 8.52097e-011
319
root  31.9465 35.1254 52.2527 173.745 -44.9056 -169.973
RightUpLeg  -20.4252 11.0429 -5.67635
RightLeg  44.9516 -3.29721 -3.83535
RightFoot  -27.4354 2.30464 17.5053
RightToes  -5.8209e-011 0 -3.6325e-017
Spine  15.7418 -2.15067 -7.93261
Spine1  5.80512 -6.79894 13.1521
HEad  -11.7963 2.96491 7.43139
LeftShoulder1  1.94192 -9.18476 -7.76025
LeftArm  20.6226 -80.8813 -94.8681
LeftForeArm  8.28753 8.11207 -13.6524
LeftHand  0.22334 2.39253 -9.37468
RightShoulder  12.729 34.0888 27.294
RightArm  -49.2847 33.1794 7.80419
RightForeArm  -31.0912 -0.845038 4.39327
RightHand  1.14689 3.10069 15.3554
LeftUpLeg  -38.0645 8.08128 23.8414
LeftLeg  37.4428 -3.71056 -2.67905
LeftFoot  -8.43415 0.27782 -8.94708
LeftToes  -4.03819e-010 -8.71445e-011 8.52097e-011
320
root  29.623 35.2094 52.7972 174.112 -40.3088 -169.988
RightUpLeg  -17.3461 14.0645 -8.56494
RightLeg  39.7654 -1.88764 -1.96518
RightFoot  -26.5147 2.52464 20.1281
RightToes  -5.8209e-011 0 -3.6325e-017
Spine  14.7607 -2.2785 -8.65298
Spine1  5.49553 -7.00961 13.7876
HEad  -9.05214 2.44085 7.90927
LeftShoulder1  2.01683 -9.41373 -8.10561
LeftArm  28.0332 -80.1738 -103.35
LeftForeArm  8.70177 8.15621 -13.9282
LeftHand  0.199611 2.62555 -9.23136
RightShoulder  11.6085 33.0811 25.1375
RightArm  -49.4143 33.02 7.44297
RightForeArm  -31.5021 -1.51152 4.1935
RightHand  1.09287 2.91547 14.9693
LeftUpLeg  -35.4143 10.0268 24.0954
LeftLeg  37.328 -5.11938 -3.81517
LeftFoot  -5.71941 1.03536 -20.2078
LeftToes  -4.03819e-010 -8.71445e-011 8.52097e-011
321
root  27.201 35.281 53.1781 174.527 -35.6524 -170.472
RightUpLeg  -14.1041 18.5296 -11.556
RightLeg  34.2371 -2.03317 -1.74119
RightFoot  -24.3526 2.54582 23.482
RightToes  -5.8209e-011 0 -3.6325e-017
Spine  13.8338 -2.52991 -10.0835
Spine1  4.74499 -7.2573 14.1123
HEad  -5.9831 2.27368 8.01418
LeftShoulder1  2.08746 -9.46674 -8.6435
LeftArm  35.3979 -79.2114 -112.202
LeftForeArm  8.29641 8.1803 -14.1053
LeftHand  0.17457 2.99843 -9.58782
RightShoulder  10.3107 32.2868 22.1126
RightArm  -49.7091 32.8022 6.08594
RightForeArm  -31.3701 -3.6181 3.67544
RightHand  1.09973 2.69905 15.4822
LeftUpLeg  -34.3546 15.9443 21.2641
LeftLeg  43.665 -6.09082 -5.80032
LeftFoot  -9.49362 0.31623 -16.0114
LeftToes  -4.03819e-010 -8.71445e-011 8.52097e-011
322
root  24.8028 35.448 53.3924 174.361 -31.5753 -171.493
RightUpLeg  -11.337 19.9033 -14.2875
RightLeg  31.4945 -4.57715 -3.25999
RightFoot  -18.7484 1.72773 28.1399
RightToes  -5.8209e-011 0 -3.6325e-017
Spine  13.1233 -2.8911 -11.2795
Spine1  4.40334 -7.4215 13.2561
HEad  -3.93691 2.3968 8.46922
LeftShoulder1  2.06683 -9.40294 -8.55386
LeftArm  42.0549 -77.8567 -121.399
LeftForeArm  7.10115 8.12794 -13.7926
LeftHand  0.148847 3.24764 -9.39523
RightShoulder  9.11917 30.8171 19.7923
RightArm  -50.1947 32.6214 3.67544
RightForeArm  -30.7178 -5.48768 3.27902
RightHand  1.10891 2.2362 16.5933
LeftUpLeg  -31.3728 19.8177 18.6113
LeftLeg  47.4142 -5.57059 -6.03864
LeftFoot  -12.5742 -0.0575493 -12.2891
LeftToes  -4.03819e-010 -8.71445e-011 8.52097e-011
323
root  22.4156 35.8399 53.5285 174.112 -26.8787 -171.743
RightUpLeg  -11.9488 15.7783 -15.7228
RightLeg  33.4571 -9.42895 -6.88682
RightFoot  -8.03652 -0.916802 29.2472
RightToes  -5.8209e-011 0 -3.6325e-017
Spine  12.6971 -2.98781 -11.3648
Spine1  3.37512 -7.23873 12.6085
HEad  -1.9493 2.9812 7.28812
LeftShoulder1  2.08065 -9.17381 -8.99959
LeftArm  47.2629 -76.9295 -128.362
LeftForeArm  7.2976 8.08095 -13.4812
LeftHand  0.105225 3.6754 -8.96321
RightShoulder  8.0477 29.7092 17.3205
RightArm  -48.7167 31.9548 1.32452
RightForeArm  -28.2613 -5.86479 4.10103
RightHand  1.13842 2.23197 17.0428
LeftUpLeg  -27.2271 21.7534 16.8532
LeftLeg  48.5787 -3.63819 -3.97003
LeftFoot  -16.378 -0.339732 -9.9314
LeftToes  -4.03819e-010 -8.71445e-011 8.52097e-011
324
root  20.0853 36.71 53.5193 174.719 -20.184 -172.347
RightUpLeg  -17.3167 10.3156 -15.0963
RightLeg  40.2733 -11.5244 -10.547
RightFoot  6.28593 -1.38833 9.21462
RightToes  -5.8209e-011 0 -3.6325e-017
Spine  10.5985 -2.69685 -10.4028
Spine1  3.88481 -6.53464 12.3822
HEad  -0.215084 4.54531 6.07685
LeftShoulder1  2.02714 -8.88972 -8.93797
LeftArm  50.4186 -77.2638 -131.577
LeftForeArm  6.54104 8.03819 -13.2315
LeftHand  0.124051 3.48901 -9.16524
RightShoulder  7.64256 29.5388 16.137
RightArm  -47.2002 30.7852 0.00609254
RightForeArm  -24.8448 -6.09677 4.84551
RightHand  1.26228 2.75611 17.6373
LeftUpLeg  -21.1523 23.6357 14.7244
LeftLeg  45.0929 -0.239798 0.160083
LeftFoot  -18.3542 -0.458123 -9.25289
LeftToes  -4.03819e-010 -8.71445e-011 8.52097e-011
325
root  18.0248 37.5843 53.2348 175.061 -12.9452 -174.413
RightUpLeg  -20.9222 4.46737 -13.5137
RightLeg  44.8865 -6.12778 -6.80072
RightFoot  5.23538 -1.28368 9.04135
RightToes  -5.8209e-011 0 -3.6325e-017
Spine  10.4638 -2.46034 -10.8296
Spine1  1.94001 -5.79006 10.659
HEad  3.25717 7.42525 4.07709
LeftShoulder1  1.96835 -8.35056 -9.21555
LeftArm  44.5669 -77.7942 -124.87
LeftForeArm  6.97614 8.03815 -13.2155
LeftHand  0.13651 3.38152 -9.36011
RightShoulder  7.83033 29.9664 16.412
RightArm  -45.2786 30.4051 1.03602
RightForeArm  -22.3979 -4.94602 5.82639
RightHand  1.39105 3.30783 18.1633
LeftUpLeg  -13.8216 25.1904 11.5586
LeftLeg  39.7711 3.9105 3.87479
LeftFoot  -18.3209 -0.492279 -9.85021
LeftToes  -4.03819e-010 -8.71445e-011 8.52097e-011
